<svg width="98" height="98" viewBox="0 0 98 98" fill="none" xmlns="http://www.w3.org/2000/svg">
<circle cx="49" cy="49" r="47" stroke="black" stroke-width="4"/>
<path d="M41.1335 49.1705C40.608 49.1705 40.157 48.9822 39.7805 48.6058C39.4041 48.2294 39.2159 47.7784 39.2159 47.2528C39.2159 46.7273 39.4041 46.2763 39.7805 45.8999C40.157 45.5234 40.608 45.3352 41.1335 45.3352C41.6591 45.3352 42.1101 45.5234 42.4865 45.8999C42.8629 46.2763 43.0511 46.7273 43.0511 47.2528C43.0511 47.6009 42.9624 47.9205 42.7848 48.2116C42.6143 48.5028 42.3835 48.7372 42.0923 48.9148C41.8082 49.0852 41.4886 49.1705 41.1335 49.1705ZM49.3952 49.1705C48.8697 49.1705 48.4187 48.9822 48.0423 48.6058C47.6658 48.2294 47.4776 47.7784 47.4776 47.2528C47.4776 46.7273 47.6658 46.2763 48.0423 45.8999C48.4187 45.5234 48.8697 45.3352 49.3952 45.3352C49.9208 45.3352 50.3718 45.5234 50.7482 45.8999C51.1246 46.2763 51.3129 46.7273 51.3129 47.2528C51.3129 47.6009 51.2241 47.9205 51.0465 48.2116C50.8761 48.5028 50.6452 48.7372 50.354 48.9148C50.07 49.0852 49.7504 49.1705 49.3952 49.1705ZM57.657 49.1705C57.1314 49.1705 56.6804 48.9822 56.304 48.6058C55.9276 48.2294 55.7393 47.7784 55.7393 47.2528C55.7393 46.7273 55.9276 46.2763 56.304 45.8999C56.6804 45.5234 57.1314 45.3352 57.657 45.3352C58.1825 45.3352 58.6335 45.5234 59.0099 45.8999C59.3864 46.2763 59.5746 46.7273 59.5746 47.2528C59.5746 47.6009 59.4858 47.9205 59.3082 48.2116C59.1378 48.5028 58.907 48.7372 58.6158 48.9148C58.3317 49.0852 58.0121 49.1705 57.657 49.1705Z" fill="black"/>
</svg>
