<svg width="17" height="5" viewBox="0 0 17 5" fill="none" xmlns="http://www.w3.org/2000/svg">
<g id="&#240;&#159;&#166;&#134; icon &#34;more&#34;">
<g id="Group">
<path id="Vector" d="M2.66667 1C1.75 1 1 1.75 1 2.66667C1 3.58333 1.75 4.33333 2.66667 4.33333C3.58333 4.33333 4.33333 3.58333 4.33333 2.66667C4.33333 1.75 3.58333 1 2.66667 1Z" fill="white" stroke="#292D32" stroke-width="0.5"/>
<path id="Vector_2" d="M14.3332 1C13.4165 1 12.6665 1.75 12.6665 2.66667C12.6665 3.58333 13.4165 4.33333 14.3332 4.33333C15.2498 4.33333 15.9998 3.58333 15.9998 2.66667C15.9998 1.75 15.2498 1 14.3332 1Z" fill="white" stroke="#292D32" stroke-width="0.5"/>
<path id="Vector_3" d="M8.50016 1C7.5835 1 6.8335 1.75 6.8335 2.66667C6.8335 3.58333 7.5835 4.33333 8.50016 4.33333C9.41683 4.33333 10.1668 3.58333 10.1668 2.66667C10.1668 1.75 9.41683 1 8.50016 1Z" fill="white" stroke="#292D32" stroke-width="0.5"/>
</g>
</g>
</svg>
